<?xml version="1.0" encoding="UTF-8" standalone="no"?>
<!-- Generator: Adobe Illustrator 18.1.1, SVG Export Plug-In . SVG Version: 6.00 Build 0)  -->

<svg
   xmlns:dc="http://purl.org/dc/elements/1.1/"
   xmlns:cc="http://creativecommons.org/ns#"
   xmlns:rdf="http://www.w3.org/1999/02/22-rdf-syntax-ns#"
   xmlns:svg="http://www.w3.org/2000/svg"
   xmlns="http://www.w3.org/2000/svg"
   xmlns:sodipodi="http://sodipodi.sourceforge.net/DTD/sodipodi-0.dtd"
   xmlns:inkscape="http://www.inkscape.org/namespaces/inkscape"
   version="1.1"
   id="Capa_1"
   x="0px"
   y="0px"
   viewBox="0 0 33.74817 30.045794"
   xml:space="preserve"
   inkscape:version="0.91 r13725"
   sodipodi:docname="search.svg"
   width="33.748169"
   height="30.045794"><metadata
     id="metadata4531"><rdf:RDF><cc:Work
         rdf:about=""><dc:format>image/svg+xml</dc:format><dc:type
           rdf:resource="http://purl.org/dc/dcmitype/StillImage" /><dc:title></dc:title></cc:Work></rdf:RDF></metadata><defs
     id="defs4529" /><sodipodi:namedview
     pagecolor="#ffffff"
     bordercolor="#666666"
     borderopacity="1"
     objecttolerance="10"
     gridtolerance="10"
     guidetolerance="10"
     inkscape:pageopacity="0"
     inkscape:pageshadow="2"
     inkscape:window-width="1920"
     inkscape:window-height="1029"
     id="namedview4527"
     showgrid="false"
     fit-margin-top="0"
     fit-margin-left="0"
     fit-margin-right="0"
     fit-margin-bottom="0"
     inkscape:zoom="26.280429"
     inkscape:cx="16.425063"
     inkscape:cy="14.51932"
     inkscape:window-x="0"
     inkscape:window-y="27"
     inkscape:window-maximized="1"
     inkscape:current-layer="Capa_1" /><g
     id="g4490"
     transform="matrix(-0.99365779,0.1124464,0.1124464,0.99365779,30.524887,-2.1717472)"><g
       id="search_1_"><path
         style="fill:#010002"
         d="M 20,0 C 13.373,0 8,5.373 8,12 c 0,2.026 0.507,3.933 1.395,5.608 l -8.343,8.342 0.007,0.006 c -0.652,0.641 -1.058,1.529 -1.058,2.516 0,1.949 1.58,3.529 3.529,3.529 0.985,0 1.874,-0.406 2.515,-1.059 L 6.043,30.94 14.384,22.6 C 16.059,23.491 17.969,24 20,24 26.627,24 32,18.627 32,12 32,5.373 26.628,0 20,0 Z M 4.796,29.692 c -0.322,0.334 -0.768,0.543 -1.266,0.543 -0.975,0 -1.765,-0.789 -1.765,-1.764 0,-0.498 0.21,-0.943 0.543,-1.266 l -0.009,-0.008 8.066,-8.066 c 0.705,0.951 1.545,1.791 2.494,2.498 L 4.796,29.692 Z M 20,22.001 c -5.522,0 -10,-4.479 -10,-10 0,-5.522 4.478,-10 10,-10 5.521,0 10,4.478 10,10 0,5.521 -4.479,10 -10,10 z"
         id="path4493"
         inkscape:connector-curvature="0" /><path
         style="fill:#010002"
         d="m 20,5 c -3.867,0 -7,3.134 -7,7 0,0.276 0.224,0.5 0.5,0.5 0.276,0 0.5,-0.224 0.5,-0.5 0,-3.313 2.686,-6 6,-6 0.275,0 0.5,-0.224 0.5,-0.5 C 20.5,5.224 20.275,5 20,5 Z"
         id="path4495"
         inkscape:connector-curvature="0" /></g></g><g
     id="g4497"
     transform="translate(0.42456376,-0.47402706)" /><g
     id="g4499"
     transform="translate(0.42456376,-0.47402706)" /><g
     id="g4501"
     transform="translate(0.42456376,-0.47402706)" /><g
     id="g4503"
     transform="translate(0.42456376,-0.47402706)" /><g
     id="g4505"
     transform="translate(0.42456376,-0.47402706)" /><g
     id="g4507"
     transform="translate(0.42456376,-0.47402706)" /><g
     id="g4509"
     transform="translate(0.42456376,-0.47402706)" /><g
     id="g4511"
     transform="translate(0.42456376,-0.47402706)" /><g
     id="g4513"
     transform="translate(0.42456376,-0.47402706)" /><g
     id="g4515"
     transform="translate(0.42456376,-0.47402706)" /><g
     id="g4517"
     transform="translate(0.42456376,-0.47402706)" /><g
     id="g4519"
     transform="translate(0.42456376,-0.47402706)" /><g
     id="g4521"
     transform="translate(0.42456376,-0.47402706)" /><g
     id="g4523"
     transform="translate(0.42456376,-0.47402706)" /><g
     id="g4525"
     transform="translate(0.42456376,-0.47402706)" /></svg>