<svg xmlns="http://www.w3.org/2000/svg" class="icon" viewBox="0 0 285.544 287.667">
    <path class="icon-background"
        d="M262.238 210.697a136.665 137.681 0 0 1-185.74 53.546 136.665 137.681 0 0 1-53.3-187.078 136.665 137.681 0 0 1 185.654-53.848 136.665 137.681 0 0 1 53.6 186.99"
        fill="#0f0" />
    <path class="icon-border"
        d="M147.723.087A142.772 143.834 0 0 0 17.855 74.186a142.772 143.834 0 0 0 55.682 195.437 142.772 143.834 0 0 0 194.04-55.938l.224-.408a142.772 143.834 0 0 0-55.996-195.346A142.772 143.834 0 0 0 147.723.086zM147.25 13.8a129.152 130.112 0 0 1 57.97 16.142 129.152 130.112 0 0 1 50.653 176.71l-.202.37a129.152 130.112 0 0 1-175.53 50.601A129.152 130.112 0 0 1 29.772 80.83a129.152 130.112 0 0 1 117.48-67.03z"
        fill-opacity=".995" />
    <path class="icon-color"
        d="M180.115 45.627l-8.185 10.201-8.344 3.33-10.624-.48-11.696 7.91 2.116 11.87-3.415 7.947-9.562 2.725v15.028l9.767 9.446 3.517 7.899-4.512 7.967 10.638 13.42 15.667-5.858 6.704 6.71 9.896 10.521 11.103-.128 7.73-10.392 8.369-3.281 11.527 6.15 9.013-15.956-.259-9.42 3.466-7.924 8.113-8.459.565-17.33-8.626-1.385-3.466-7.924 2.296-15.186-11.461-3.505-11.117-.51-8.677-3.379-5.505-8.03zm14.9 37.422c7.777 0 13.698 11.676 13.698 19.59s-21.248 15.599-29.025 15.599c-7.777 0-13.89-12.764-13.89-20.678 0-7.914 22.972-29.747 29.217-14.51z"
        fill="#fc0" fill-rule="evenodd" stroke="#000" stroke-width=".426" />
    <path
        d="M185.309 76.47a24.121 22.837 0 0 0-24.12 22.836 24.121 22.837 0 0 0 24.12 22.836 24.121 22.837 0 0 0 24.122-22.836 24.121 22.837 0 0 0-24.122-22.837zm0 8.154a15.506 14.68 0 0 1 15.507 14.682 15.506 14.68 0 0 1-15.507 14.68 15.506 14.68 0 0 1-15.506-14.68 15.506 14.68 0 0 1 15.506-14.682z"
        opacity=".99" />
    <path
        d="M178.594 180.83l13.341 7.74a.877.877 0 0 1 .394 1.124l-5.769 13.584-.034-.013a.963.963 0 0 1-1.106.553l-15.273-3.19c-1.93-.397-3.895.317-5.037 1.794a57.252 57.252 0 0 1-11.67 11.262c-1.551 1.134-2.264 2.999-1.81 4.82l3.649 14.433c.102.414-.138.885-.568 1.058l-14.24 5.75a.98.98 0 0 1-.756.011.89.89 0 0 1-.443-.356l-8.441-12.47c-1.041-1.559-2.99-2.376-4.928-2.101a62.074 62.074 0 0 1-16.664.179c-1.95-.256-3.868.626-4.853 2.2l-8.175 12.63c-.246.394-.744.542-1.187.373l-14.348-5.461c-.443-.169-.695-.602-.585-1.047l3.37-14.46c.42-1.827-.335-3.688-1.894-4.769a59.68 59.68 0 0 1-11.671-10.74 5.072 5.072 0 0 0-2.071-1.462c-.92-.35-1.984-.455-3.001-.205l-15.34 3.493c-.211.032-.409.032-.58-.033a.964.964 0 0 1-.537-.504l-6.073-13.481c-.183-.407-.026-.872.364-1.136l13.11-7.94c1.66-1.018 2.523-2.864 2.233-4.698-.877-5.206-.99-10.534-.27-15.77.22-1.827-.676-3.63-2.325-4.595l-13.43-7.81a.877.877 0 0 1-.393-1.125l5.769-13.584a.963.963 0 0 1 1.106-.553l15.17 3.15c1.93.398 3.93-.303 5.085-1.812a57.129 57.129 0 0 1 11.582-11.333c1.55-1.134 2.23-3.012 1.762-4.802l-3.69-14.523c-.101-.413.138-.884.568-1.058l14.24-5.75a.98.98 0 0 1 .756-.011.89.89 0 0 1 .443.356l8.387 12.413c1.075 1.57 3.024 2.388 4.962 2.113 5.04.794 7.139-8.984 1.641-9.645l-6.659-9.956c-1.21-1.81-2.995-3.201-5.108-4.006-2.693-1.025-5.673-.997-8.315.096L75.009 95.3c-4.874 1.967-7.557 6.98-6.311 11.878l2.966 11.66a66.197 66.197 0 0 0-9.013 8.826l-12.082-2.5c-5.203-1.08-10.432 1.539-12.419 6.218l-5.768 13.583c-1.987 4.679-.128 9.997 4.416 12.626l10.793 6.282a60.944 60.944 0 0 0 .216 12.263l-10.468 6.286c-4.48 2.717-6.243 8.08-4.13 12.708l6.072 13.48c1.142 2.534 3.239 4.494 5.931 5.52 2.113.803 4.384.956 6.581.443l12.317-2.808c2.716 3.02 5.74 5.783 8.988 8.294l-2.695 11.567c-1.142 4.926 1.625 9.877 6.567 11.758l14.382 5.474c4.941 1.881 10.558.121 13.335-4.181l6.547-10.102c4.33.336 8.662.298 12.96-.127l6.727 9.982c1.21 1.81 2.995 3.201 5.108 4.006a11.343 11.343 0 0 0 8.315-.096l14.239-5.75c4.873-1.967 7.557-6.98 6.31-11.878l-2.938-11.538c3.313-2.674 6.374-5.595 9.068-8.767l12.218 2.552c5.202 1.08 10.432-1.54 12.418-6.218l5.769-13.583c2.055-4.653.196-9.97-4.349-12.6l-10.67-6.198c-7.207-3.76-11.409 3.493-7.815 6.47zm-61.67-43.543c-18.596 0-33.67 14.272-33.67 31.877 0 17.605 15.074 31.877 33.67 31.877 18.595 0 33.67-14.272 33.671-31.877.205-5.558-11.836-5.335-12.026 0 0 11.317-9.691 20.492-21.645 20.491-11.954 0-21.644-9.174-21.644-20.491 0-10.822 8.89-19.776 20.298-20.45 3.63-.11 7.695-9.69 1.346-11.427zm124.785-49.763l-8.626-1.386a44.78 44.78 0 0 0-3.466-7.924l5.083-6.732c2.157-2.869 1.823-6.782-.821-9.261l-7.65-7.243c-1.438-1.361-3.338-2.115-5.366-2.115a7.748 7.748 0 0 0-4.39 1.337l-7.138 4.813a49.761 49.761 0 0 0-8.677-3.379l-1.438-8.07c-.616-3.475-3.774-6.003-7.496-6.003h-10.808c-3.723 0-6.88 2.528-7.497 6.004l-1.489 8.264a48.998 48.998 0 0 0-8.344 3.33l-7.06-4.813a7.83 7.83 0 0 0-4.415-1.337c-2.029 0-3.954.754-5.366 2.115l-7.676 7.243c-2.619 2.48-2.978 6.392-.822 9.26l5.135 6.83a43.707 43.707 0 0 0-3.415 7.948l-8.523 1.362c-3.671.583-6.341 3.573-6.341 7.097v10.233c0 3.524 2.67 6.514 6.341 7.097l8.729 1.41a43.71 43.71 0 0 0 3.517 7.9l-5.058 6.66c-2.156 2.867-1.822 6.78.822 9.26l7.65 7.243c1.438 1.361 3.338 2.114 5.366 2.114a7.748 7.748 0 0 0 4.39-1.336l7.214-4.862a50.14 50.14 0 0 0 8.113 3.16l1.438 8.167c.616 3.476 3.773 6.004 7.496 6.004h10.834c3.722 0 6.88-2.528 7.496-6.004l1.464-8.167c2.9-.85 5.7-1.944 8.37-3.281l7.11 4.812a7.83 7.83 0 0 0 4.416 1.337c2.028 0 3.928-.753 5.366-2.114l7.65-7.243c2.619-2.48 2.978-6.393.822-9.261l-5.083-6.757c1.412-2.552 2.593-5.202 3.466-7.924l8.626-1.361c3.67-.583 6.34-3.573 6.34-7.097V94.62c.052-3.525-2.618-6.514-6.289-7.097zm-.59 17.33a.64.64 0 0 1-.565.632l-10.783 1.701c-1.36.219-2.439 1.167-2.773 2.406-.975 3.573-2.464 7-4.467 10.185a3.141 3.141 0 0 0 .154 3.573l6.342 8.458a.635.635 0 0 1-.077.826l-7.651 7.244a.672.672 0 0 1-.488.194.654.654 0 0 1-.385-.122l-8.908-6.003c-1.104-.754-2.593-.802-3.774-.146a42.404 42.404 0 0 1-10.757 4.23c-1.335.315-2.336 1.36-2.542 2.624l-1.823 10.209c-.05.316-.333.535-.667.535h-10.808c-.334 0-.616-.22-.668-.535l-1.797-10.209c-.231-1.288-1.232-2.309-2.542-2.625a44.056 44.056 0 0 1-10.525-4.083 3.71 3.71 0 0 0-1.746-.438c-.693 0-1.412.195-2.003.608l-8.985 6.052a.793.793 0 0 1-.385.122.71.71 0 0 1-.488-.195l-7.65-7.243a.633.633 0 0 1-.078-.826l6.316-8.386a3.18 3.18 0 0 0 .154-3.597c-2.003-3.16-3.543-6.587-4.518-10.16-.36-1.24-1.438-2.188-2.773-2.406l-10.86-1.75a.64.64 0 0 1-.565-.632V94.864a.64.64 0 0 1 .565-.632l10.706-1.701c1.36-.22 2.464-1.167 2.798-2.431a37.727 37.727 0 0 1 4.39-10.209 3.102 3.102 0 0 0-.18-3.548l-6.392-8.507a.635.635 0 0 1 .077-.827l7.65-7.243c.18-.17.36-.194.488-.194.154 0 .283.048.385.121l8.858 5.98a3.68 3.68 0 0 0 3.8.145 41.981 41.981 0 0 1 10.73-4.278c1.31-.34 2.31-1.36 2.542-2.625l1.848-10.281c.052-.316.334-.535.668-.535h10.808c.334 0 .616.219.668.535l1.797 10.136c.23 1.288 1.232 2.333 2.567 2.649a43.015 43.015 0 0 1 11.014 4.278 3.635 3.635 0 0 0 3.774-.146l8.857-6.028a.793.793 0 0 1 .385-.121.71.71 0 0 1 .488.194l7.65 7.243a.633.633 0 0 1 .077.827l-6.341 8.434a3.14 3.14 0 0 0-.154 3.573 37.797 37.797 0 0 1 4.467 10.184c.334 1.264 1.438 2.212 2.773 2.406l10.782 1.726a.64.64 0 0 1 .565.632v10.233z" />
</svg>
