<svg xmlns="http://www.w3.org/2000/svg" class="icon" viewBox="0 0 265.374 265.374">
    <g transform="translate(479.738 78.019)">
        <path class="icon-background"
            d="M-236.023 116.35a127.011 127.011 0 0 1-172.62 49.396A127.011 127.011 0 0 1-458.18-6.834a127.011 127.011 0 0 1 172.54-49.675 127.011 127.011 0 0 1 49.815 172.5"
            fill="#fc0" />
        <rect class="icon-color" width="43.356" height="130.506" x="-439.848" y="-10.794" ry="4.119" opacity=".99"
            fill="#fc0" />
        <path class="icon-color"
            d="M-353.959 101.033l15.975-34.853 42.598.726 18.636 34.611c-48.747 3.082-29.671 8.916-77.209-.484z" fill="#fc0"
            fill-rule="evenodd" />
        <path
            d="M-315.02-4.901c-19.09 0-34.564 15.475-34.564 34.564 0 11.553 5.673 21.776 14.38 28.052a45.79 45.79 0 0 0-26.633 41.534 45.79 45.79 0 0 0 1.87 12.85H-272.122a45.79 45.79 0 0 0 1.868-12.85 45.79 45.79 0 0 0-25.379-40.97c9.16-6.217 15.178-16.712 15.178-28.616-.01-2.18-.219-4.349-.631-6.476-2.152-6.743-13.434-3.55-12.018 2.886.198 1.185.3 2.385.305 3.59-.001 12.271-9.95 22.22-22.221 22.219-12.271 0-22.219-9.948-22.22-22.22 0-12.271 9.948-22.22 22.22-22.22 2.793.007 5.548.54 8.124 1.559 4.964 1.307 9.57-9.533 2.265-12.297a34.563 34.563 0 0 0-10.39-1.605zm-1.027 74.712a29.437 29.437 0 0 1 29.438 29.438 29.437 29.437 0 0 1-.026.54h-58.826a29.437 29.437 0 0 1-.02-.54 29.437 29.437 0 0 1 29.434-29.438z"
            opacity=".99" />
        <path
            d="M-420.312-22.672c-14.984 0-27.126 11.473-27.126 25.631v101.789c0 14.163 12.142 25.63 27.126 25.63h146.072c14.983 0 27.12-11.473 27.12-25.63V2.959c0-14.158-12.137-25.63-27.12-25.63zm0 12.101h11.151v128.848h-11.151c-7.896 0-14.319-6.068-14.319-13.53V2.96c0-7.461 6.423-13.53 14.319-13.53zm25.795 0h120.277c7.896 0 14.318 6.069 14.318 13.53v101.789c0 7.46-6.422 13.53-14.318 13.53h-120.277z" />
        <path class="icon-border"
            d="M-342.45-77.939A132.687 132.687 0 0 0-463.144-9.582a132.687 132.687 0 0 0 51.748 180.292 132.687 132.687 0 0 0 180.334-51.603l.208-.377a132.687 132.687 0 0 0-52.04-180.207 132.687 132.687 0 0 0-59.556-16.462zm-.439 12.65a120.029 120.029 0 0 1 53.874 14.892 120.029 120.029 0 0 1 47.076 163.016l-.188.34a120.029 120.029 0 0 1-163.13 46.68A120.029 120.029 0 0 1-452.07-3.452a120.029 120.029 0 0 1 109.18-61.835z"
            fill-opacity=".995" />
    </g>
</svg>
