<svg xmlns="http://www.w3.org/2000/svg" class="icon" viewBox="0 0 285.544 287.667">
    <path class="icon-background"
        d="M262.238 210.698a136.665 137.681 0 0 1-185.74 53.545 136.665 137.681 0 0 1-53.3-187.078 136.665 137.681 0 0 1 185.654-53.848 136.665 137.681 0 0 1 53.6 186.99"
        fill="#fff" />
    <path class="icon-border"
        d="M147.723.086a142.772 143.834 0 0 0-129.868 74.1 142.772 143.834 0 0 0 55.682 195.437 142.772 143.834 0 0 0 194.04-55.938l.224-.408a142.772 143.834 0 0 0-55.996-195.346A142.772 143.834 0 0 0 147.723.086zM147.25 13.8a129.152 130.112 0 0 1 57.97 16.142 129.152 130.112 0 0 1 50.653 176.71l-.202.37a129.152 130.112 0 0 1-175.53 50.601A129.152 130.112 0 0 1 29.772 80.83a129.152 130.112 0 0 1 117.48-67.03z"
        fill-opacity=".995" />
    <path class="icon-color" d="M175.895 76.12l32.655 17.778 22.86 23.766 9.796 22.678h-70.028z" fill="#fc0"
        fill-rule="evenodd" stroke="#000" stroke-width=".265" />
    <path
        d="M256.103 186.494c-.904-4.607-8.889-45.189-10.861-51.113-4.743-14.245-16.136-30.462-30.478-43.38-14.91-13.43-30.36-21.132-42.386-21.132H55.392c-6.063 0-10.996 4.933-10.996 10.995v17.278h-8.1a5.38 5.38 0 0 0 0 10.758h8.1v13.728l-13.151-.075c-5.694.061-5.714 10.22.06 10.206l13.09-.008v14.909h-14.49a5.38 5.38 0 0 0 0 10.758h14.49v28.111c0 6.063 4.933 10.995 10.996 10.995h13.411c2.005 13.325 13.53 23.575 27.405 23.575 13.875 0 25.4-10.25 27.404-23.575h49.339c2.004 13.325 13.53 23.575 27.404 23.575 13.875 0 25.4-10.25 27.404-23.575h17.449c6.063 0 10.996-4.932 10.996-10.995 0-.347-.034-.693-.1-1.035zm-21.684-49.45H178.99V82.589c19.636 5.273 46.853 31.398 55.428 54.455zM96.207 211.341c-9.35 0-16.957-7.606-16.957-16.957 0-9.35 7.607-16.957 16.957-16.957 9.35 0 16.957 7.607 16.957 16.957 0 9.35-7.607 16.957-16.957 16.957zm104.148 0c-9.35 0-16.958-7.607-16.958-16.957 0-9.35 7.608-16.957 16.958-16.957 9.35 0 16.957 7.607 16.957 16.957 0 9.35-7.607 16.957-16.957 16.957zm44.586-23.574h-17.676c-2.975-12.096-13.909-21.097-26.91-21.097-13.002 0-23.936 9-26.911 21.097h-50.327c-2.975-12.096-13.908-21.097-26.91-21.097s-23.935 9-26.91 21.097H55.391a.238.238 0 0 1-.238-.237v-28.112h68.037a5.38 5.38 0 0 0 0-10.758H55.153v-14.655l48.28-.368c7.48.053 6.183-10.199-.068-9.866l-48.212.092V109.9h30.343a5.38 5.38 0 0 0 0-10.758H55.153V81.865c0-.131.107-.238.238-.238h112.842v60.796a5.379 5.379 0 0 0 5.379 5.379h63.591c2.294 10.46 5.44 27.223 8.118 39.633.054.25-.102.332-.38.332z" />
</svg>
