<svg xmlns="http://www.w3.org/2000/svg" class="icon" viewBox="0 0 246.509 248.343">
    <path class="icon-background"
        d="M226.39 181.895a117.983 118.86 0 0 1-160.35 46.226A117.983 118.86 0 0 1 20.028 66.617 117.983 118.86 0 0 1 180.3 20.129a117.983 118.86 0 0 1 46.274 161.429"
        fill="#fff" />
    <path class="icon-border"
        d="M127.529.075a123.255 124.171 0 0 0-112.115 63.97 123.255 124.171 0 0 0 48.07 168.72A123.255 124.171 0 0 0 231 184.476l.193-.353A123.255 124.171 0 0 0 182.851 15.48 123.255 124.171 0 0 0 127.529.075zm-.408 11.838a111.497 112.326 0 0 1 50.044 13.936 111.497 112.326 0 0 1 43.73 152.554l-.175.319a111.497 112.326 0 0 1-151.534 43.684A111.497 112.326 0 0 1 25.702 69.781 111.497 112.326 0 0 1 127.12 11.913z"
        fill-opacity=".995" />
    <path
        d="M101.548 177.305a22.64 22.64 0 0 0-22.64 22.64 22.64 22.64 0 0 0 22.64 22.641 22.64 22.64 0 0 0 22.642-22.64 22.64 22.64 0 0 0-22.642-22.641zm0 8.085a14.555 14.555 0 0 1 14.555 14.556 14.555 14.555 0 0 1-14.555 14.554 14.555 14.555 0 0 1-14.554-14.554 14.555 14.555 0 0 1 14.554-14.556zM42.54 67.955c5.594-.44 13.169 1.304 17.936 5.324 8.773 7.398 10.652 52.237 17.238 78.86.994 4.021 9.234 20.882 23.834 20.877l63.786-.022c13.885-.005 24.534-37.65 36.8-56.474.983-9.352-8.417-10.932-12.947-6.133-9.256 16.492-21.897 49.558-30.415 49.477l-54.852-.524c-8.023-.076-10.783-2.614-12.836-11.644-6.378-28.053-10.83-79.162-22.546-87.065-8.408-5.67-15.186-7.962-26-7.144-5.505 4.533-6.079 9.325.001 14.468zm120.093 109.35a22.64 22.64 0 0 0-22.64 22.64 22.64 22.64 0 0 0 22.64 22.641 22.64 22.64 0 0 0 22.642-22.64 22.64 22.64 0 0 0-22.642-22.641zm0 8.085a14.555 14.555 0 0 1 14.556 14.556 14.555 14.555 0 0 1-14.556 14.554 14.555 14.555 0 0 1-14.554-14.554 14.555 14.555 0 0 1 14.554-14.556zm-29.158-40.084c.824.626 1.837.927 2.85.927 1.013 0 2.01-.301 2.85-.927.824-.61 23.294-21.166 35.55-38.268.947-1.329 1.038-3.028.23-4.434-.782-1.398-2.347-2.279-4.036-2.279h-18.335s-1.787-33.147-2.957-34.684c-1.696-2.271-8.706-3.816-13.31-3.816-4.62 0-11.754 1.545-13.459 3.816-1.161 1.53-2.702 34.684-2.702 34.684h-18.573c-1.697 0-3.254.88-4.053 2.279a4.103 4.103 0 0 0 .23 4.434c12.265 17.11 34.9 37.658 35.715 38.268z"
        opacity=".99" />
    <g fill="#fc0" fill-opacity=".992">
        <path class="icon-color"
            d="M134.632 137.38c.48.508 1.07.753 1.66.753.59 0 1.17-.245 1.66-.754.48-.496 16.299-15.588 25.997-26.233.552-1.08.605-2.462.134-3.604-.455-1.137-1.367-1.853-2.35-1.853h-15.97s-1.042-31.412-1.723-32.661c-.988-1.847-5.071-3.103-7.753-3.103-2.691 0-6.846 1.256-7.839 3.103-.676 1.243-1.573 32.661-1.573 32.661h-15.58c-.989 0-1.896.716-2.361 1.853-.465 1.142-.413 2.53.134 3.604 9.238 12.979 25.09 25.737 25.564 26.233z" />
    </g>
</svg>
