
<svg xmlns="http://www.w3.org/2000/svg" class="icon" viewBox="0 0 287.517 289.655">
    <g transform="translate(352.401 102.584)">
        <path class="icon-background"
            d="M-88.35 109.57a137.61 138.633 0 0 1-187.024 53.916 137.61 138.633 0 0 1-53.67-188.371 137.61 138.633 0 0 1 186.938-54.22 137.61 138.633 0 0 1 53.972 188.282"
            fill="#fff" />
        <path class="icon-border"
            d="M-203.657-102.496a143.759 144.828 0 0 0-130.766 74.61 143.759 144.828 0 0 0 56.067 196.79 143.759 144.828 0 0 0 195.38-56.325l.226-.411a143.759 144.828 0 0 0-56.383-196.696 143.759 144.828 0 0 0-64.524-17.968zm-.476 13.807a130.045 131.012 0 0 1 58.37 16.254A130.045 131.012 0 0 1-94.76 105.497l-.204.372a130.045 131.012 0 0 1-176.742 50.951 130.045 131.012 0 0 1-50.718-178.015 130.045 131.012 0 0 1 118.29-67.494z"
            fill-opacity=".995" />
        <rect class="icon-color" width="31.196" height="84.235" x="-162.922" y="16.732" ry="4.565" fill="#fdcb00"
            fill-opacity=".995" />
        <path
            d="M-162.922 11.986c-2.041 0-3.685 2.15-3.685 4.822v82.896c0 2.671 1.644 4.822 3.685 4.822h31.07c2.042 0 3.685-2.15 3.685-4.822V16.808c0-2.671-1.643-4.822-3.685-4.822zm4.714 7.593h20.917c2.041 0 3.685 2.15 3.685 4.822v68.66c0 2.67-1.644 4.821-3.685 4.821h-20.917c-2.041 0-3.685-2.15-3.685-4.822V24.401c0-2.671 1.644-4.822 3.685-4.822zm-49.323 18.508c-2.042 0-3.685 1.555-3.685 3.487v59.94c0 1.932 1.643 3.487 3.685 3.487h31.07c2.041 0 3.685-1.555 3.685-3.487v-59.94c0-1.932-1.644-3.487-3.685-3.487zm4.714 5.49h20.916c2.042 0 3.685 1.555 3.685 3.487V96.71c0 1.931-1.643 3.487-3.685 3.487h-20.916c-2.041 0-3.685-1.556-3.685-3.487V47.064c0-1.932 1.644-3.487 3.685-3.487zm-51.459-54.133c-2.041 0-3.685 2.702-3.685 6.059V99.654c0 3.356 1.644 6.059 3.685 6.059h31.07c2.042 0 3.685-2.703 3.685-6.059V-4.497c0-3.357-1.643-6.059-3.685-6.059zm4.715 9.54h20.916c2.041 0 3.685 2.702 3.685 6.059v86.264c0 3.356-1.644 6.058-3.685 6.058h-20.916c-2.042 0-3.685-2.702-3.685-6.058V5.043c0-3.357 1.643-6.059 3.685-6.059zm-22.882-64.013a4.812 4.812 0 0 0-4.822 4.822v183.435a4.812 4.812 0 0 0 4.822 4.822h154.997a4.812 4.812 0 0 0 4.822-4.822V-9.987c0-2.671-56.527-55.042-59.198-55.042zm11.049 12.237h78.462V-3.2c-.067 2.904 1.53 4.67 3.75 4.67h56.123v108.907a5.424 5.424 0 0 1-5.435 5.436h-132.9a5.424 5.424 0 0 1-5.436-5.436V-47.356a5.424 5.424 0 0 1 5.436-5.436zm90.4 2.39l44.546 41.538h-44.545z"
            opacity=".99" />
        <path class="icon-color"
            d="M-224.544 111.675a47.457 47.457 0 0 1-62.404 19.55 47.457 47.457 0 0 1-22.68-61.335 47.457 47.457 0 0 1 60.109-25.754l-16.51 44.492z"
            opacity=".99" fill="#fdcb00" />
        <path
            d="M-266.503 36.9a51.728 51.728 0 0 0-51.727 51.728 51.728 51.728 0 0 0 51.727 51.728 51.728 51.728 0 0 0 51.728-51.728 51.728 51.728 0 0 0-51.728-51.727zm1.957 9.518a42.236 42.236 0 0 1 13.211 2.612l-14.693 39.598 36.921 20.512a42.236 42.236 0 0 1-55.54 17.4 42.236 42.236 0 0 1-20.185-54.589 42.236 42.236 0 0 1 40.286-25.533z"
            opacity=".99" />
    </g>
</svg>
