<svg xmlns="http://www.w3.org/2000/svg" class="icon" viewBox="0 0 271.114 273.13">
    <path class="icon-background"
        d="M248.986 200.05a129.759 130.723 0 0 1-176.354 50.84A129.759 130.723 0 0 1 22.025 73.266a129.759 130.723 0 0 1 176.272-51.127 129.759 130.723 0 0 1 50.893 177.54"
        fill="#fff" />
    <path class="icon-border"
        d="M140.258.082A135.557 136.565 0 0 0 16.952 70.437a135.557 136.565 0 0 0 52.869 185.561 135.557 136.565 0 0 0 184.234-53.11l.212-.388a135.557 136.565 0 0 0-53.166-185.475A135.557 136.565 0 0 0 140.258.082zm-.449 13.02a122.625 123.537 0 0 1 55.04 15.327 122.625 123.537 0 0 1 48.094 167.78l-.193.351a122.625 123.537 0 0 1-166.658 48.045 122.625 123.537 0 0 1-47.825-167.86 122.625 123.537 0 0 1 111.542-63.643z"
        fill-opacity=".995" />
    <path
        d="M236.746 156.75L158.04 78.002c-4.156-4.156-9.712-6.475-15.575-6.475-.481 0-.962 0-1.444.044l-56.917 3.762c-6.169.394-11.156 5.381-11.55 11.55l-1.356 20.212a39.226 39.226 0 0 1-8.138-6.256c-6.08-6.081-9.843-13.65-10.63-21.35-.744-7.306 1.356-13.825 5.906-18.374 9.668-9.669 27.474-7.525 39.768 4.724a5.255 5.255 0 0 0 7.437 0 5.255 5.255 0 0 0 0-7.437c-16.45-16.318-40.95-18.418-54.687-4.681-6.824 6.825-9.974 16.318-8.924 26.862 1.006 10.106 5.862 19.95 13.65 27.737 4.374 4.375 9.45 7.831 14.83 10.193l-1.662 25.331c-.438 6.344 1.925 12.556 6.43 17.062l78.75 78.749c4.987 4.987 11.593 7.7 18.637 7.7 7.043 0 13.65-2.756 18.637-7.7l45.63-45.63c4.988-4.988 7.7-11.594 7.7-18.638-.044-7.087-2.8-13.693-7.787-18.637zm-7.394 29.793l-45.674 45.675a15.752 15.752 0 0 1-11.2 4.637 15.752 15.752 0 0 1-11.2-4.637L82.53 153.469a11.528 11.528 0 0 1-3.369-8.925l1.531-22.924c.875.13 1.75.262 2.625.35 1.313.13 2.625.218 3.894.218 8.969 0 16.975-3.15 22.925-9.1a5.255 5.255 0 0 0 0-7.437 5.255 5.255 0 0 0-7.438 0c-4.55 4.55-11.068 6.65-18.374 5.906-1.007-.087-1.97-.262-2.932-.437l1.575-23.45c.044-.962.832-1.706 1.794-1.793l56.918-3.763c.262 0 .525-.044.787-.044 3.063 0 6.038 1.225 8.181 3.37l78.705 78.704a15.752 15.752 0 0 1 4.637 11.2c0 4.243-1.662 8.225-4.637 11.2z" />
    <g>
        <path class="icon-color"
            d="M185.458 133.961l-20.333 3.225q-1.53-3.88-2.788-5.356-1.202-1.53-4.045-3.061v15.796q16.617 4.427 22.192 9.347 7.379 6.613 7.379 16.78 0 5.958-2.679 10.932-2.623 4.974-6.777 8.308-4.1 3.334-8.746 4.864-4.646 1.476-11.369 1.75v10.33h-7.98v-10.33q-8.035-.711-13.063-2.57-4.974-1.913-8.636-5.247-3.608-3.334-5.575-7.16-1.968-3.88-2.952-9.347l22.082-2.569q.984 5.412 2.624 7.817 1.694 2.405 5.52 4.263v-19.295q-11.04-3.06-15.687-5.301-4.591-2.241-7.98-7.16-3.389-4.975-3.389-12.08 0-9.73 6.778-16.234 6.832-6.559 20.278-7.27v-5.41h7.98v5.41q12.244.766 18.694 5.794 6.504 5.029 8.472 13.774zm-35.146-5.466q-3.498 1.148-4.864 2.843-1.367 1.694-1.367 3.99 0 2.405 1.367 4.208 1.42 1.75 4.864 2.952zm7.98 53.785q4.646-1.039 6.778-3.39 2.186-2.404 2.186-5.356 0-2.569-1.858-4.7-1.804-2.187-7.106-4.045z"
            fill="#fc0" fill-opacity=".992" />
    </g>
</svg>
